<?xml version="1.0" standalone="no"?>
<!DOCTYPE svg PUBLIC "-//W3C//DTD SVG 20010904//EN"
 "http://www.w3.org/TR/2001/REC-SVG-20010904/DTD/svg10.dtd">
<svg version="1.0" xmlns="http://www.w3.org/2000/svg"
 width="1024.000000pt" height="1024.000000pt" viewBox="0 0 1024.000000 1024.000000"
 preserveAspectRatio="xMidYMid meet">
<metadata>
Created by potrace 1.14, written by Peter Selinger 2001-2017
</metadata>
<g transform="translate(0.000000,1024.000000) scale(0.100000,-0.100000)"
fill="#000000" stroke="none">
<path d="M2429 8525 c-79 -29 -132 -64 -174 -115 -15 -18 -10 -16 17 7 109 93
233 131 328 102 19 -5 46 -12 59 -15 37 -8 72 -28 126 -75 44 -40 47 -41 27
-12 -29 41 -104 90 -166 108 -60 18 -168 18 -217 0z"/>
<path d="M7657 8519 c-75 -12 -150 -54 -206 -114 -98 -108 -123 -252 -63 -378
74 -158 237 -248 394 -217 34 6 80 21 102 32 59 30 129 101 158 160 77 157 47
315 -81 429 -84 75 -192 106 -304 88z m133 -274 c19 -20 25 -36 25 -70 0 -62
-37 -100 -99 -100 -110 0 -144 138 -46 188 43 22 86 16 120 -18z"/>
<path d="M2202 8330 c-18 -29 -15 -38 4 -12 9 13 14 25 12 27 -2 2 -9 -5 -16
-15z"/>
<path d="M4885 8344 c-460 -49 -781 -135 -1130 -304 -391 -189 -710 -436
-1022 -789 -281 -320 -530 -775 -663 -1216 -102 -337 -137 -608 -127 -984 12
-479 113 -894 321 -1316 264 -536 699 -1023 1178 -1321 388 -241 796 -382
1268 -440 175 -21 501 -28 685 -15 260 19 402 44 645 113 708 200 1295 633
1720 1268 286 428 458 877 532 1395 9 59 13 199 13 405 0 340 -12 460 -71 710
-97 414 -309 873 -563 1220 -123 168 -375 432 -541 566 -448 363 -988 600
-1555 685 -107 16 -201 21 -395 24 -140 1 -273 1 -295 -1z m-408 -1047 c414
-131 370 -121 460 -101 103 24 263 24 367 0 43 -10 92 -15 110 -12 17 3 166
47 331 97 393 119 464 125 545 46 70 -69 687 -880 733 -964 17 -31 31 -75 34
-108 5 -48 2 -63 -25 -117 -17 -35 -62 -103 -99 -153 -69 -91 -105 -140 -427
-585 -98 -135 -196 -264 -218 -287 -44 -47 -86 -63 -163 -63 -47 0 -52 -3 -74
-38 -13 -20 -91 -127 -172 -237 -82 -110 -214 -290 -295 -400 -168 -230 -185
-249 -239 -278 -37 -20 -55 -22 -220 -22 -166 0 -184 2 -225 22 -25 13 -60 42
-78 65 -37 48 -274 368 -461 624 -69 93 -142 190 -163 215 -38 46 -39 47 -107
51 -52 3 -77 9 -105 28 -23 16 -101 116 -218 280 -244 343 -247 347 -411 572
-80 108 -152 215 -161 238 -22 55 -20 131 4 183 20 41 34 61 196 268 44 57
178 230 298 384 119 154 237 298 261 321 95 89 158 85 522 -29z m-1008 -3583
l42 -19 -27 -36 c-24 -35 -27 -36 -52 -23 -39 20 -125 28 -166 14 -20 -6 -36
-15 -36 -20 0 -5 -3 -15 -6 -23 -9 -25 24 -45 98 -57 97 -16 143 -36 174 -73
22 -26 25 -38 21 -73 -10 -93 -77 -139 -197 -137 -75 1 -181 28 -187 48 -1 6
7 22 20 37 22 27 23 28 62 13 22 -8 71 -14 108 -15 59 0 71 3 92 25 14 13 25
28 25 34 0 15 -29 41 -53 45 -12 3 -58 12 -102 20 -66 13 -85 21 -107 46 -68
75 -37 179 62 209 51 15 179 7 229 -15z m427 11 c75 -23 79 -27 60 -64 -9 -17
-18 -31 -19 -31 -1 0 -20 7 -42 15 -85 30 -175 11 -216 -46 -31 -44 -36 -117
-10 -166 40 -80 147 -112 231 -70 l34 18 30 -31 c19 -19 27 -33 21 -39 -21
-20 -109 -41 -169 -41 -137 0 -229 82 -243 216 -19 182 135 296 323 239z m428
-11 c40 -20 44 -32 18 -64 -17 -22 -18 -22 -70 -5 -129 43 -229 -27 -219 -153
8 -117 119 -185 218 -134 35 18 35 18 71 -8 l36 -27 -46 -23 c-30 -15 -72 -24
-117 -27 -63 -4 -76 -2 -125 24 -72 38 -112 100 -118 184 -12 164 90 266 254
254 34 -2 78 -12 98 -21z m341 10 c33 -8 64 -19 69 -24 13 -13 -35 -72 -54
-64 -8 4 -36 12 -61 17 -151 33 -251 -147 -143 -256 48 -48 111 -63 176 -44
46 14 47 14 74 -14 l27 -29 -39 -17 c-60 -26 -187 -24 -241 4 -126 67 -163
243 -76 361 54 72 153 97 268 66z m399 -8 c41 -17 43 -22 17 -55 -18 -23 -20
-24 -65 -11 -59 16 -140 8 -174 -17 -62 -45 -79 -137 -39 -207 45 -80 125
-106 210 -68 l45 20 26 -27 c14 -15 26 -30 26 -33 0 -3 -22 -15 -49 -27 -97
-41 -235 -18 -298 50 -52 57 -73 178 -45 260 18 52 74 106 130 124 56 18 162
14 216 -9z m384 -1 c23 -9 42 -20 42 -24 -1 -3 -11 -18 -23 -34 -23 -27 -23
-27 -66 -12 -91 32 -184 6 -216 -61 -22 -46 -19 -132 5 -172 41 -67 127 -90
207 -57 33 14 39 14 74 -2 21 -10 39 -21 39 -25 0 -4 -19 -17 -42 -29 -54 -28
-161 -36 -225 -19 -60 17 -127 81 -142 135 -26 94 -4 209 49 260 65 62 198 80
298 40z m460 -10 c29 -16 51 -33 49 -39 -2 -5 -14 -18 -28 -28 -24 -18 -25
-18 -66 2 -84 40 -194 17 -235 -48 -31 -50 -32 -139 -2 -179 56 -76 157 -97
240 -49 l41 23 28 -23 c35 -28 27 -42 -43 -76 -71 -34 -179 -32 -248 6 -181
99 -163 357 30 433 18 7 63 11 106 10 61 -3 86 -9 128 -32z m899 5 c23 -12 47
-34 54 -48 18 -33 18 -157 1 -174 -9 -9 -57 -14 -162 -16 -141 -4 -150 -5
-150 -23 0 -33 29 -78 60 -94 40 -21 135 -19 186 4 l41 19 17 -29 c9 -16 14
-33 11 -39 -3 -5 -38 -19 -77 -31 -127 -39 -253 -5 -300 81 -16 30 -19 52 -16
157 l3 122 34 35 c47 49 100 66 187 62 51 -2 82 -9 111 -26z m257 9 l26 -20 0
-196 c0 -169 -2 -199 -17 -215 -20 -22 -51 -23 -81 -2 -22 15 -22 20 -22 219
0 199 0 204 22 219 29 21 40 20 72 -5z m-762 1 c20 -6 48 -24 62 -41 26 -30
26 -32 26 -209 0 -169 -1 -180 -20 -190 -14 -8 -26 -8 -40 0 -18 10 -20 21
-20 115 l0 105 -80 0 -80 0 0 -99 c0 -104 -10 -131 -49 -131 -38 0 -41 17 -41
236 l0 213 33 4 c67 8 173 7 209 -3z m-2079 -701 c22 -2 22 -2 0 -6 -19 -4
-23 -11 -23 -43 0 -35 3 -39 28 -43 25 -4 25 -4 -3 -3 l-30 1 -1 80 c-1 44 1
65 3 48 3 -25 9 -33 26 -34z m1116 -36 c-2 -70 -6 -63 -11 20 -2 26 0 47 4 47
5 0 7 -30 7 -67z m-1296 46 c-51 -15 -58 -84 -11 -107 13 -6 17 -11 11 -11
-21 -1 -53 37 -53 64 0 31 33 65 63 64 17 -1 15 -3 -10 -10z m87 -30 c0 -6 -4
-7 -10 -4 -5 3 -10 11 -10 16 0 6 5 7 10 4 6 -3 10 -11 10 -16z m210 17 c0 -2
-7 -7 -16 -10 -8 -3 -12 -2 -9 4 6 10 25 14 25 6z m133 -14 c-10 -10 -20 -17
-22 -16 -6 5 20 34 30 34 5 0 1 -8 -8 -18z m238 1 c12 -16 12 -16 -1 -6 -8 6
-31 13 -50 16 l-35 4 36 1 c24 1 41 -4 50 -15z m132 10 c-7 -2 -21 -2 -30 0
-10 3 -4 5 12 5 17 0 24 -2 18 -5z m160 0 c-7 -2 -21 -2 -30 0 -10 3 -4 5 12
5 17 0 24 -2 18 -5z m99 -9 c-12 -8 -23 -25 -23 -37 -1 -18 -2 -19 -6 -4 -5
19 22 57 41 57 6 0 0 -7 -12 -16z m82 0 c9 -8 16 -25 15 -37 -1 -20 -2 -20 -8
3 -4 14 -18 30 -31 37 -17 9 -20 13 -8 13 9 0 24 -7 32 -16z m76 6 c0 -5 -5
-10 -11 -10 -5 0 -7 5 -4 10 3 6 8 10 11 10 2 0 4 -4 4 -10z m212 -7 c30 -27
23 -43 -19 -41 -37 1 -37 1 -5 5 17 2 32 8 32 12 0 14 -24 31 -45 31 -28 0
-45 -18 -45 -47 0 -17 9 -28 33 -38 17 -8 27 -14 20 -15 -32 -1 -63 24 -63 51
0 52 53 77 92 42z m136 5 c25 -25 13 -38 -33 -38 -46 0 -54 -7 -33 -28 16 -16
50 -15 68 1 12 10 12 9 1 -5 -15 -21 -61 -24 -79 -6 -17 17 -15 48 5 70 18 21
53 24 71 6z m142 -8 c11 -11 20 -23 20 -28 0 -14 -31 -52 -43 -52 -7 0 -4 5 6
11 21 12 22 52 2 69 -8 7 -25 10 -39 6 -33 -8 -43 -42 -20 -67 21 -23 12 -26
-10 -3 -9 8 -16 22 -16 30 0 21 37 54 60 54 11 0 29 -9 40 -20z m134 4 c23
-23 18 -84 -6 -84 -6 0 -6 6 2 14 26 33 -7 87 -45 73 -13 -6 -16 -16 -13 -46
2 -22 0 -37 -4 -35 -12 8 -9 69 4 82 17 17 44 15 62 -4z m69 3 c2 -7 1 -30 -3
-52 l-8 -40 -1 47 c-1 27 -6 48 -13 51 -8 4 -7 6 3 6 9 1 19 -5 22 -12z m67
-13 c12 -30 13 -91 3 -80 -8 8 -9 13 -11 59 -1 18 -9 31 -24 37 l-23 9 23 0
c15 1 26 -7 32 -25z m-1410 -4 c-23 -43 17 -81 70 -67 11 3 18 1 14 -4 -17
-27 -104 7 -104 42 0 13 19 49 26 49 2 0 0 -9 -6 -20z m172 8 c-16 -16 -15
-50 1 -67 9 -11 9 -12 0 -7 -26 14 -33 42 -17 64 8 12 18 22 22 22 3 0 1 -5
-6 -12z m157 -9 c-8 -16 -8 -28 0 -48 11 -24 10 -25 -4 -7 -8 11 -15 24 -15
29 0 11 19 47 26 47 2 0 0 -10 -7 -21z m-53 -44 c-4 -14 -12 -25 -18 -25 -9 0
-9 3 0 12 7 7 12 21 12 32 0 10 3 17 6 13 4 -3 4 -18 0 -32z m-769 3 c-3 -8
-6 -5 -6 6 -1 11 2 17 5 13 3 -3 4 -12 1 -19z m386 -28 c11 0 18 -3 14 -6 -13
-14 -54 7 -65 33 l-12 28 21 -27 c11 -16 30 -28 42 -28z m757 2 c0 -15 -2 -15
-10 -2 -13 20 -13 33 0 25 6 -3 10 -14 10 -23z m-710 8 c0 -5 -5 -10 -11 -10
-5 0 -7 5 -4 10 3 6 8 10 11 10 2 0 4 -4 4 -10z m584 -11 c29 -6 29 -7 5 -8
-14 -1 -34 6 -45 15 -10 8 -13 12 -5 8 8 -4 28 -11 45 -15z m-757 -5 c-3 -3
-12 -4 -19 -1 -8 3 -5 6 6 6 11 1 17 -2 13 -5z m466 -1 c-7 -2 -21 -2 -30 0
-10 3 -4 5 12 5 17 0 24 -2 18 -5z m154 1 c-3 -3 -12 -4 -19 -1 -8 3 -5 6 6 6
11 1 17 -2 13 -5z"/>
<path d="M4078 7098 c-30 -35 -84 -100 -119 -145 -35 -44 -111 -141 -169 -214
-58 -74 -127 -163 -155 -200 -27 -36 -78 -103 -113 -148 -72 -93 -84 -133 -56
-177 11 -16 86 -124 169 -240 82 -116 199 -282 259 -368 59 -87 111 -155 113
-152 3 3 0 12 -6 20 -7 8 -9 21 -5 28 4 7 4 10 -1 6 -4 -4 -19 5 -31 20 -26
29 -30 42 -13 42 5 0 7 5 4 10 -4 6 -11 8 -16 5 -5 -4 -9 3 -9 14 0 12 -5 21
-11 21 -7 0 -9 9 -6 21 5 17 3 18 -11 7 -14 -11 -14 -11 -5 6 7 12 7 31 2 50
-6 22 -5 34 7 47 13 15 13 18 0 32 -14 13 -14 16 -1 21 8 3 15 15 15 26 0 11
7 20 15 20 8 0 26 15 42 34 15 19 31 32 35 30 4 -3 8 -25 8 -49 0 -85 125
-453 147 -432 3 3 -4 23 -15 44 -168 314 -140 715 73 1045 97 150 303 323 471
394 69 29 77 39 42 47 -13 3 -61 18 -108 35 -47 17 -146 49 -220 72 -141 43
-234 73 -261 84 -12 5 -32 -11 -71 -56z"/>
<path d="M4037 5409 c10 -17 27 -38 37 -47 11 -9 5 4 -14 31 -38 53 -50 62
-23 16z"/>
<path d="M4190 5380 c6 -11 13 -20 16 -20 2 0 0 9 -6 20 -6 11 -13 20 -16 20
-2 0 0 -9 6 -20z"/>
<path d="M4380 5165 c0 -10 51 -80 221 -300 80 -104 205 -272 278 -372 72
-100 136 -185 142 -189 13 -8 173 -6 195 3 26 10 632 829 621 840 -3 3 -32
-15 -64 -40 -153 -120 -328 -185 -556 -205 -285 -26 -555 55 -800 242 -20 16
-37 25 -37 21z"/>
<path d="M6601 3646 c-30 -16 -50 -52 -51 -88 l0 -28 119 0 c133 0 148 6 136
60 -10 45 -56 70 -125 70 -30 -1 -66 -7 -79 -14z"/>
<path d="M6150 3594 l0 -69 80 0 80 0 0 41 c0 64 -24 87 -99 92 l-61 4 0 -68z"/>
<path d="M5547 3004 c-15 -16 -5 -24 29 -24 24 0 34 4 32 13 -5 13 -50 22 -61
11z"/>
<path d="M2171 8234 c0 -11 3 -14 6 -6 3 7 2 16 -1 19 -3 4 -6 -2 -5 -13z"/>
<path d="M8807 7461 c-142 -47 -243 -167 -269 -319 -13 -78 1 -157 43 -247 31
-67 116 -150 186 -183 52 -24 69 -27 168 -27 103 0 114 2 178 32 160 76 258
257 228 425 -23 134 -102 238 -225 298 -61 30 -80 35 -160 37 -69 2 -105 -2
-149 -16z m228 -242 c70 -42 97 -154 53 -219 -40 -58 -72 -75 -143 -75 -69 0
-99 15 -139 69 -31 40 -29 139 2 184 50 70 150 88 227 41z"/>
<path d="M8889 7131 c-26 -27 -30 -37 -25 -64 19 -97 156 -87 156 12 0 44 -21
68 -68 77 -26 5 -36 1 -63 -25z"/>
<path d="M1323 7163 c-7 -2 -13 -9 -13 -15 0 -7 5 -6 14 1 7 6 22 9 32 5 16
-5 16 -4 4 5 -16 12 -19 12 -37 4z"/>
<path d="M2082 6914 c-29 -20 -30 -68 -1 -88 21 -14 20 -16 -50 -121 -39 -58
-69 -110 -66 -115 3 -6 1 -18 -5 -27 -9 -16 -10 -15 -5 5 4 12 4 22 2 22 -3 0
-51 -64 -107 -142 -211 -293 -535 -731 -612 -825 -32 -39 -58 -77 -58 -83 0
-7 53 -83 118 -169 157 -207 388 -510 413 -541 10 -13 19 -28 19 -33 0 -14
-52 -85 -155 -212 -53 -66 -99 -126 -102 -132 -5 -12 69 -118 454 -658 l143
-200 -6 -47 c-8 -57 5 -78 47 -78 40 0 69 32 69 74 0 29 -7 40 -37 63 -46 34
-52 41 -163 196 -48 67 -168 236 -268 376 -100 140 -182 259 -182 265 0 20
201 279 243 315 26 21 20 46 -25 103 -70 88 -98 123 -263 343 -88 116 -178
235 -202 265 -24 30 -43 62 -43 70 0 8 53 85 116 170 64 85 139 189 168 230
29 41 112 157 184 258 73 101 129 188 126 194 -4 6 -2 8 3 5 12 -8 47 28 40
40 -3 5 -1 15 5 23 8 12 9 12 4 -3 -3 -11 -2 -16 4 -12 6 3 10 15 10 26 0 13
4 18 12 13 8 -5 9 -2 5 9 -3 9 -2 16 3 14 9 -2 100 111 100 126 0 14 -10 6
-24 -20 -8 -16 -15 -23 -16 -18 0 17 31 56 40 50 4 -3 23 16 41 41 19 26 53
67 76 93 55 62 63 92 29 125 -29 30 -52 33 -84 10z"/>
<path d="M8087 6909 c-27 -16 -39 -56 -26 -82 7 -12 38 -50 71 -85 32 -35 70
-81 85 -103 14 -21 30 -36 36 -32 6 3 7 1 3 -5 -4 -7 -2 -17 4 -24 6 -7 32
-43 59 -80 26 -38 51 -65 55 -61 4 4 5 1 2 -7 -3 -8 9 -31 26 -50 17 -19 28
-27 24 -17 -3 11 -2 16 5 12 6 -4 8 -14 5 -22 -5 -13 37 -77 201 -303 170
-234 214 -290 225 -284 7 4 8 3 4 -5 -9 -14 12 -43 25 -35 5 3 6 -1 3 -9 -3
-8 6 -27 18 -43 34 -41 98 -133 98 -140 0 -13 -390 -529 -487 -645 -46 -54
-83 -103 -83 -108 0 -5 21 -31 46 -57 62 -65 204 -243 217 -272 13 -28 6 -40
-97 -184 -39 -55 -78 -109 -86 -121 -8 -12 -51 -72 -95 -134 -44 -62 -111
-158 -150 -213 -38 -55 -78 -110 -87 -122 -10 -12 -18 -24 -19 -27 0 -3 -3
-19 -5 -36 -5 -27 0 -23 45 35 28 36 49 71 46 78 -3 7 -1 11 4 8 10 -7 502
676 505 700 1 11 -1 15 -121 172 -140 185 -138 182 -128 197 42 59 176 237
278 370 104 135 213 282 265 354 11 16 5 28 -51 97 -35 44 -97 124 -137 179
-41 55 -78 105 -82 110 -23 28 -236 322 -321 442 -54 76 -148 207 -208 291
-108 150 -109 153 -93 177 26 40 -7 96 -56 95 -3 -1 -13 -5 -23 -11z m394
-606 c13 -16 12 -17 -3 -4 -10 7 -18 15 -18 17 0 8 8 3 21 -13z m213 -289 c5
-14 4 -15 -9 -4 -17 14 -19 20 -6 20 5 0 12 -7 15 -16z m-494 -2368 c0 -2 -7
-7 -16 -10 -8 -3 -12 -2 -9 4 6 10 25 14 25 6z"/>
<path d="M1236 3749 c-58 -14 -148 -65 -195 -112 -23 -22 -56 -70 -74 -106
-30 -61 -32 -73 -32 -171 0 -96 3 -110 29 -165 78 -159 257 -247 439 -217 140
24 238 99 300 230 29 61 32 76 32 162 0 86 -3 101 -32 161 -83 169 -281 261
-467 218z m202 -224 c87 -52 108 -183 41 -260 -82 -93 -238 -81 -297 23 -54
97 -7 219 97 253 38 12 126 3 159 -16z"/>
<path d="M1315 3473 c-84 -20 -97 -141 -19 -178 65 -31 134 12 134 83 0 46
-16 71 -55 88 -19 8 -36 13 -37 13 -2 -1 -12 -3 -23 -6z"/>
<path d="M2435 2496 c-51 -16 -122 -52 -131 -67 -3 -6 16 1 42 16 63 35 94 44
174 51 36 3 67 8 69 10 10 10 -118 1 -154 -10z"/>
<path d="M7596 2499 c-113 -27 -224 -121 -279 -237 -30 -62 -32 -75 -32 -173
0 -101 1 -108 38 -181 157 -319 607 -313 760 10 30 63 32 74 32 177 -1 98 -3
116 -27 168 -51 109 -176 208 -299 236 -53 13 -140 12 -193 0z m190 -301 c131
-86 75 -288 -79 -288 -104 0 -167 62 -167 162 0 52 3 62 36 98 58 64 140 75
210 28z"/>
<path d="M7643 2114 c-20 -20 -24 -31 -19 -57 9 -44 33 -67 73 -67 41 0 83 38
83 75 0 14 -11 37 -25 50 -32 33 -78 33 -112 -1z"/>
<path d="M2625 2491 c46 -12 125 -49 161 -76 50 -38 53 -30 3 9 -46 37 -137
77 -172 75 -16 -1 -14 -3 8 -8z"/>
<path d="M2269 2403 c-13 -16 -12 -17 4 -4 9 7 17 15 17 17 0 8 -8 3 -21 -13z"/>
<path d="M2229 2363 c-13 -16 -12 -17 4 -4 9 7 17 15 17 17 0 8 -8 3 -21 -13z"/>
<path d="M2132 2110 c0 -19 2 -27 5 -17 2 9 2 25 0 35 -3 9 -5 1 -5 -18z"/>
</g>
</svg>
